<?xml version="1.0" encoding="UTF-8" standalone="no"?>
<!-- Created with Inkscape (http://www.inkscape.org/) -->

<svg
   width="127.99999"
   height="128"
   viewBox="0 0 33.866664 33.866668"
   version="1.1"
   id="svg8"
   sodipodi:docname="icon-blue.svg"
   inkscape:version="0.92.2 2405546, 2018-03-11"
   xml:space="preserve"
   xmlns:inkscape="http://www.inkscape.org/namespaces/inkscape"
   xmlns:sodipodi="http://sodipodi.sourceforge.net/DTD/sodipodi-0.dtd"
   xmlns:xlink="http://www.w3.org/1999/xlink"
   xmlns="http://www.w3.org/2000/svg"
   xmlns:svg="http://www.w3.org/2000/svg"
   xmlns:rdf="http://www.w3.org/1999/02/22-rdf-syntax-ns#"
   xmlns:cc="http://creativecommons.org/ns#"
   xmlns:dc="http://purl.org/dc/elements/1.1/"><defs
     id="defs2"><inkscape:path-effect
       effect="bspline"
       id="path-effect6"
       is_visible="true"
       lpeversion="1.3"
       weight="33.333333"
       steps="2"
       helper_size="0"
       apply_no_weight="true"
       apply_with_weight="true"
       only_selected="false"
       uniform="false" /><linearGradient
       id="linearGradient1449"
       inkscape:collect="always"><stop
         id="stop1453"
         offset="0"
         style="stop-color:#b2bbd4;stop-opacity:1" /><stop
         id="stop1455"
         offset="1"
         style="stop-color:#ccd4ea;stop-opacity:1" /></linearGradient><linearGradient
       inkscape:collect="always"
       xlink:href="#linearGradient1449"
       id="linearGradient1451"
       x1="15.982387"
       y1="279.43271"
       x2="15.982387"
       y2="287.35825"
       gradientUnits="userSpaceOnUse" /><inkscape:path-effect
       effect="bspline"
       id="path-effect6-9"
       is_visible="true"
       lpeversion="1.3"
       weight="33.333333"
       steps="2"
       helper_size="0"
       apply_no_weight="true"
       apply_with_weight="true"
       only_selected="false"
       uniform="false" /></defs><sodipodi:namedview
     id="base"
     pagecolor="#ffffff"
     bordercolor="#666666"
     borderopacity="1.0"
     inkscape:pageopacity="0.0"
     inkscape:pageshadow="2"
     inkscape:zoom="5.6568543"
     inkscape:cx="48.220801"
     inkscape:cy="83.324269"
     inkscape:document-units="mm"
     inkscape:current-layer="layer1"
     showgrid="true"
     units="px"
     inkscape:window-width="956"
     inkscape:window-height="1033"
     inkscape:window-x="960"
     inkscape:window-y="45"
     inkscape:window-maximized="0"
     showguides="false"
     inkscape:object-paths="false"
     inkscape:snap-intersection-paths="false"
     inkscape:object-nodes="false"
     inkscape:showpageshadow="2"
     inkscape:pagecheckerboard="0"
     inkscape:deskcolor="#d1d1d1"><inkscape:grid
       id="grid1"
       units="mm"
       originx="0"
       originy="0"
       spacingx="0.99999998"
       spacingy="1"
       empcolor="#0099e5"
       empopacity="0.30196078"
       color="#0099e5"
       opacity="0.14901961"
       empspacing="5"
       dotted="false"
       gridanglex="30"
       gridanglez="30"
       visible="true" /></sodipodi:namedview><metadata
     id="metadata5"><rdf:RDF><cc:Work
         rdf:about=""><dc:format>image/svg+xml</dc:format><dc:type
           rdf:resource="http://purl.org/dc/dcmitype/StillImage" /></cc:Work></rdf:RDF></metadata><g
     inkscape:label="Layer 1"
     inkscape:groupmode="layer"
     id="layer1"
     transform="translate(0,-263.13332)"><path
       style="opacity:1;fill:url(#linearGradient1451);fill-opacity:1;stroke:none;stroke-width:5.05769;stroke-linecap:square;stroke-linejoin:round;stroke-miterlimit:4.3;stroke-dasharray:none;stroke-opacity:1;paint-order:markers stroke fill"
       d="m 11.359513,295.60421 c 0,0 5.020854,2.07561 10.992094,0.0594 0,0 -0.388811,-2.56204 -1.998033,-3.76123 0,0 4.135327,-0.0754 5.579136,-3.6465 -4.298672,2.19379 -9.113601,-2.14064 -8.750575,-7.94376 -4.83852,-4.59956 -9.889953,8.67573 -5.822622,15.29207 z"
       id="path922"
       inkscape:connector-curvature="0"
       sodipodi:nodetypes="ccccccc" /><path
       style="opacity:1;fill:#ccd4ea;fill-opacity:1;stroke:none;stroke-width:5.05769;stroke-linecap:square;stroke-linejoin:round;stroke-miterlimit:4.3;stroke-dasharray:none;stroke-opacity:1;paint-order:markers stroke fill"
       d="m 8.7005899,281.09012 c 7.0551231,-3.86569 7.8892371,2.03043 18.9666001,-1.58504 2.574965,-0.94494 2.853206,-2.86878 2.735088,-3.60111 -18.048762,-14.01045 -21.7016881,5.18615 -21.7016881,5.18615 z"
       id="path922-7"
       inkscape:connector-curvature="0"
       sodipodi:nodetypes="cccc" /><path
       style="fill:#2b3858;fill-opacity:1;fill-rule:evenodd;stroke:none;stroke-width:1px;stroke-linecap:butt;stroke-linejoin:miter;stroke-opacity:1"
       d="M 61.810547,1.5800781 C 37.621571,2.1419427 14.805075,18.376376 6.1484375,40.923828 -2.923754,63.092307 2.3618911,90.182024 19.154297,107.27539 c 6.541533,6.96103 14.793542,12.20849 23.779297,15.44922 15.138925,5.02441 23.136997,-7.76088 23.136997,-7.76088 C 25.26702,102.37443 54.369667,62.897142 54.369667,62.897142 41.862551,60.63512 33.035156,67.732422 33.035156,67.732422 39.0173,43.178872 66.873543,42.489592 66.873543,42.489592 72.095112,23.211255 61.810547,1.5800781 61.810547,1.5800781 Z"
       id="path977"
       inkscape:connector-curvature="0"
       sodipodi:nodetypes="ccccccccc"
       transform="matrix(0.26458333,0,0,0.26458333,0,263.13332)" /><path
       style="opacity:1;fill:#8f9cc1;fill-opacity:1;fill-rule:evenodd;stroke:none;stroke-width:1px;stroke-linecap:butt;stroke-linejoin:miter;stroke-opacity:1"
       d="M 61.810547,1.5800781 C 52.01351,2.0648697 35.942855,5.5688614 26.390625,22.185547 c 0,0 41.334023,-13.4519791 55.988281,32.027901 0,0 22.395804,-11.481859 32.527314,-5.94587 C 110.98125,27.215312 88.386255,1.626616 61.810547,1.5800781 Z"
       id="path964"
       inkscape:connector-curvature="0"
       sodipodi:nodetypes="ccccc"
       transform="matrix(0.26458333,0,0,0.26458333,0,263.13332)" /><path
       style="fill:#000000;fill-opacity:1;fill-rule:evenodd;stroke:none;stroke-width:0.264583px;stroke-linecap:butt;stroke-linejoin:miter;stroke-opacity:1"
       d="m 30.40227,275.90412 c -0.150402,-0.61762 -4.527421,-0.45597 -4.910171,0.11571 -0.568586,0.79084 1.964038,2.1603 2.699271,2.18788 1.118112,0.0594 2.375801,-1.53641 2.2109,-2.30359 z"
       id="path962"
       inkscape:connector-curvature="0"
       sodipodi:nodetypes="cccc" /><ellipse
       style="opacity:1;fill:#000000;fill-opacity:1;stroke:none;stroke-width:5.02689;stroke-linecap:square;stroke-linejoin:round;stroke-miterlimit:4.3;stroke-dasharray:none;stroke-opacity:1;paint-order:markers stroke fill"
       id="path975"
       cx="-220.52415"
       cy="122.93533"
       rx="1.6433899"
       ry="2.1078787"
       transform="matrix(0.38449963,-0.92312515,0.82827289,0.56032492,0,0)" /><g
       id="g6"
       transform="matrix(0.42184604,0,0,0.42184604,13.941012,162.32141)"><path
         style="fill:#010000;fill-opacity:1;stroke:#ffffff;stroke-width:0;stroke-linecap:round;stroke-linejoin:round;stroke-dasharray:none;stroke-opacity:1"
         d="m 126.96862,190.82576 c -0.12116,-0.41759 0.95509,-0.55501 1.99324,-0.006 1.03816,0.54922 2.03812,1.78501 2.15928,3.2355 0.12116,1.45049 -0.63648,3.1155 -3.96989,3.83093 -3.3334,0.71543 -9.24214,0.48119 -12.53004,-1.07881 -3.28789,-1.55999 -3.95453,-4.44553 -3.28784,-6.27891 0.66668,-1.83338 2.6666,-2.61434 4.4951,-2.43612 1.82851,0.17822 3.48539,1.3156 5.20219,2.48229 1.7168,1.16669 3.49332,2.36255 4.9527,2.71143 1.45938,0.34888 2.60146,-0.14927 2.51322,-0.74723 -0.0882,-0.59797 -1.4068,-1.29569 -1.52796,-1.71328 z"
         id="path5"
         inkscape:path-effect="#path-effect6"
         inkscape:original-d="m 125.77118,190.5456 c 1.07628,-0.13742 2.15253,-0.27485 3.22882,-0.41228 1.00002,1.23586 1.99998,2.47165 3,3.70751 -0.75769,1.66512 -1.51535,3.33013 -2.27304,4.99525 -5.90911,-0.23426 -11.81785,-0.4685 -17.72696,-0.70276 -0.66668,-2.88573 -1.33331,-5.77127 -2,-8.65701 2.00005,-0.78102 3.99997,-1.56198 6,-2.34299 1.65698,1.13745 3.31386,2.27483 4.97084,3.41228 1.77662,1.19593 3.55314,2.39179 5.32976,3.58772 1.14214,-0.49817 2.28422,-0.99631 3.42636,-1.49449 -1.31862,-0.69775 -2.63718,-1.39548 -3.95578,-2.09323 z"
         sodipodi:nodetypes="ccccccccccc"
         transform="translate(-93.736416,84.333737)" /><path
         style="fill:#010000;fill-opacity:1;stroke:#ffffff;stroke-width:0;stroke-linecap:round;stroke-linejoin:round;stroke-dasharray:none;stroke-opacity:1"
         d="m 126.96862,190.82576 c -0.12116,-0.41759 0.95509,-0.55501 1.99324,-0.006 1.03816,0.54922 2.03812,1.78501 2.15928,3.2355 0.12116,1.45049 -0.63648,3.1155 -3.96989,3.83093 -3.3334,0.71543 -9.24214,0.48119 -12.53004,-1.07881 -3.28789,-1.55999 -3.95453,-4.44553 -3.28784,-6.27891 0.66668,-1.83338 2.6666,-2.61434 4.4951,-2.43612 1.82851,0.17822 3.48539,1.3156 5.20219,2.48229 1.7168,1.16669 3.49332,2.36255 4.9527,2.71143 1.45938,0.34888 2.60146,-0.14927 2.51322,-0.74723 -0.0882,-0.59797 -1.4068,-1.29569 -1.52796,-1.71328 z"
         id="path5-3"
         inkscape:path-effect="#path-effect6-9"
         inkscape:original-d="m 125.77118,190.5456 c 1.07628,-0.13742 2.15253,-0.27485 3.22882,-0.41228 1.00002,1.23586 1.99998,2.47165 3,3.70751 -0.75769,1.66512 -1.51535,3.33013 -2.27304,4.99525 -5.90911,-0.23426 -11.81785,-0.4685 -17.72696,-0.70276 -0.66668,-2.88573 -1.33331,-5.77127 -2,-8.65701 2.00005,-0.78102 3.99997,-1.56198 6,-2.34299 1.65698,1.13745 3.31386,2.27483 4.97084,3.41228 1.77662,1.19593 3.55314,2.39179 5.32976,3.58772 1.14214,-0.49817 2.28422,-0.99631 3.42636,-1.49449 -1.31862,-0.69775 -2.63718,-1.39548 -3.95578,-2.09323 z"
         sodipodi:nodetypes="ccccccccccc"
         transform="matrix(-1,0,0,1,131.10052,84.231396)" /></g></g></svg>
